<?xml version="1.0" encoding="utf-8"?>
<!-- Generator: Adobe Illustrator 16.0.0, SVG Export Plug-In . SVG Version: 6.00 Build 0)  -->
<!DOCTYPE svg PUBLIC "-//W3C//DTD SVG 1.1//EN" "http://www.w3.org/Graphics/SVG/1.1/DTD/svg11.dtd">
<svg version="1.1" id="Слой_1" xmlns="http://www.w3.org/2000/svg" xmlns:xlink="http://www.w3.org/1999/xlink" x="0px" y="0px"
	 width="280px" height="60px" viewBox="0 0 280 60" enable-background="new 0 0 280 60" xml:space="preserve">
<g>
	<path fill="#3DBF78" d="M1.071,1.5h40.582c-0.383,4.493-0.661,8.731-0.848,12.739c-0.176,3.997-0.267,7.843-0.267,11.514
		c0,4.631,0.091,8.973,0.29,13.028c0.187,4.066,0.488,7.9,0.896,11.505H29.799c0.278-4.76,0.488-9.147,0.626-13.169
		c0.142-4.018,0.21-7.713,0.21-11.064c0-2.552-0.022-5.163-0.068-7.83c-0.051-2.667-0.119-5.821-0.21-9.447L12.46,8.741
		c-0.116,2.299-0.187,4.851-0.232,7.658s-0.068,6.017-0.068,9.654c0,3.351,0.068,7.058,0.218,11.102
		c0.139,4.039,0.349,8.419,0.616,13.131H1c0.383-3.604,0.672-7.438,0.882-11.505c0.199-4.055,0.301-8.396,0.301-13.028
		c0-3.671-0.091-7.518-0.29-11.514C1.71,10.231,1.429,5.993,1.071,1.5L1.071,1.5z M70.879,20.903
		c-0.383-0.024-0.811-0.046-1.288-0.058c-0.477-0.012-1.14-0.012-1.975-0.012c-2.979,0-5.082,0.347-6.31,1.05
		c-1.245,0.705-1.861,1.882-1.861,3.535c0,1.824,0.72,3.164,2.15,3.995c1.43,0.844,3.717,1.258,6.866,1.258
		c0.642,0,1.141-0.012,1.498-0.022c0.363-0.011,0.698-0.022,0.99-0.045c0-2.783,0-4.827-0.011-6.145
		C70.925,23.155,70.902,21.965,70.879,20.903L70.879,20.903z M71.577,15.151h8.506c-0.29,3.049-0.5,6.03-0.639,8.939
		c-0.127,2.91-0.196,5.75-0.196,8.524c0,2.954,0.068,5.912,0.219,8.855c0.139,2.946,0.372,5.88,0.687,8.815h-9.831
		c0.232-2.958,0.406-5.593,0.522-7.901c0.116-2.31,0.176-4.17,0.176-5.591v-1.893h-0.698c-2.451,0-4.534,1.026-6.242,3.097
		c-1.708,2.055-3.706,6.154-5.976,12.288H47.94c0.814-1.47,1.858-3.489,3.124-6.054c3.187-6.376,6.103-9.909,8.75-10.58
		c-2.797-0.438-4.959-1.432-6.506-3.003c-1.535-1.569-2.301-3.556-2.301-5.946c0-2.079,0.582-3.881,1.743-5.417
		c1.152-1.537,2.755-2.622,4.8-3.256c1.047-0.313,2.301-0.543,3.779-0.669c1.475-0.14,3.706-0.209,6.679-0.209H71.577L71.577,15.151
		z M85.939,15.151h28.895l0.684,7.485c-1.546-0.36-3.198-0.625-4.94-0.787c-1.753-0.171-3.637-0.254-5.657-0.254
		c0,0.313-0.012,0.774-0.037,1.386c-0.071,2.011-0.105,3.374-0.105,4.102c0,5.659,0.071,10.199,0.222,13.627
		c0.142,3.432,0.371,6.618,0.687,9.576h-10.6c0.289-2.866,0.499-5.834,0.641-8.919c0.125-3.071,0.198-6.246,0.198-9.514
		c0-2.461-0.014-4.437-0.04-5.915c-0.023-1.479-0.057-2.922-0.102-4.344c-2.173,0-4.125,0.083-5.845,0.254
		c-1.708,0.163-3.28,0.427-4.684,0.787L85.939,15.151L85.939,15.151z M120.679,15.151h10.214c-0.175,2.322-0.312,4.608-0.405,6.838
		c-0.105,2.24-0.162,4.411-0.185,6.537h13.525c-0.023-2.253-0.08-4.493-0.188-6.722c-0.102-2.218-0.255-4.435-0.443-6.653h10.22
		c-0.243,3.176-0.431,6.215-0.55,9.101c-0.125,2.887-0.181,5.683-0.181,8.363c0,3.683,0.067,6.953,0.192,9.84
		c0.142,2.873,0.353,5.484,0.641,7.831h-10.287c0.21-3.686,0.363-6.688,0.454-9.021c0.096-2.323,0.153-4.517,0.176-6.573
		l-13.56-0.033c0.023,2.552,0.08,5.114,0.159,7.692c0.082,2.573,0.199,5.219,0.326,7.935h-10.18
		c0.281-2.347,0.488-4.958,0.627-7.831c0.142-2.887,0.21-6.157,0.21-9.84c0-2.681-0.057-5.476-0.188-8.375
		C121.133,21.342,120.934,18.305,120.679,15.151L120.679,15.151z M161.947,15.151h10.111c-0.222,2.68-0.397,5.636-0.51,8.869
		c-0.132,3.223-0.188,6.781-0.188,10.661v3.175c2.31-3.036,4.602-6.2,6.866-9.469c2.266-3.269,4.511-6.653,6.729-10.117
		c0-0.45-0.01-0.935-0.045-1.455c-0.033-0.52-0.097-1.074-0.165-1.664h9.937c-0.244,3.223-0.431,6.282-0.545,9.158
		c-0.13,2.876-0.186,5.648-0.186,8.306c0,3.659,0.067,6.917,0.197,9.781c0.136,2.864,0.348,5.498,0.642,7.89h-10.112
		c0.209-2.75,0.368-5.834,0.477-9.229c0.104-3.395,0.147-7.878,0.147-13.455c-2.145,2.876-4.357,5.925-6.622,9.157
		c-2.253,3.246-4.613,6.757-7.088,10.546c0,0.403,0.023,1.131,0.068,2.172c0.023,0.335,0.046,0.6,0.058,0.81h-9.841
		c0.279-2.347,0.488-4.958,0.624-7.831c0.142-2.887,0.212-6.157,0.212-9.84c0-2.681-0.059-5.476-0.188-8.375
		C162.401,21.342,162.201,18.305,161.947,15.151L161.947,15.151z M203.099,15.151h10.367c-0.21,2.484-0.363,5.243-0.466,8.281
		c-0.108,3.038-0.165,6.353-0.165,9.943c0,2.54,0.012,4.563,0.035,6.04c0.021,1.479,0.063,2.909,0.106,4.285h12.979
		c0-0.634,0.012-1.56,0.021-2.771c0.073-3.442,0.108-5.741,0.108-6.919c0-3.857-0.045-7.31-0.153-10.358
		c-0.091-3.05-0.256-5.879-0.478-8.501h10.322c-0.277,2.736-0.488,5.44-0.63,8.108c-0.136,2.68-0.209,5.312-0.209,7.912
		c0,3.142,0.038,5.786,0.097,7.923c0.056,2.148,0.136,3.683,0.254,4.607l5.3,0.034c-0.068,1.328-0.13,2.667-0.163,4.032
		c-0.035,1.351-0.046,2.7-0.046,4.055c0,1.153,0.067,3.231,0.209,6.257c0.023,0.614,0.047,1.085,0.059,1.421h-7.377
		c0.067-1.27,0.124-2.437,0.159-3.511c0.032-1.074,0.044-2.067,0.044-2.991c0-0.798,0-1.362-0.012-1.709
		c-0.011-0.358-0.044-0.693-0.091-1.003h-30.16c0.256-2.75,0.454-5.603,0.586-8.536c0.124-2.921,0.187-5.994,0.187-9.206
		c0-3.152-0.074-6.178-0.222-9.053C203.608,20.614,203.388,17.831,203.099,15.151L203.099,15.151z M279,45.642l-0.142,4.11
		c-1.265,0.384-2.395,0.671-3.394,0.866c-0.999,0.197-1.861,0.291-2.581,0.291c-1.976,0-3.461-0.358-4.46-1.086
		c-0.987-0.728-1.697-1.963-2.106-3.708c-2.185,1.708-4.324,2.98-6.422,3.786c-2.106,0.81-4.269,1.216-6.498,1.216
		c-3.002,0-5.335-0.821-7.021-2.473c-1.685-1.641-2.524-3.913-2.524-6.827c0-4.122,1.771-7.263,5.3-9.434
		c3.535-2.16,8.926-3.385,16.179-3.65v-0.912c0-2.218-0.59-3.881-1.788-4.979c-1.196-1.109-3.014-1.662-5.477-1.662
		c-1.718,0-3.523,0.23-5.391,0.703c-1.883,0.474-3.733,1.166-5.544,2.068l0.268-6.86c2.115-0.924,4.239-1.629,6.39-2.114
		c2.15-0.485,4.233-0.728,6.254-0.728c4.879,0,8.426,1.098,10.632,3.303c2.197,2.195,3.305,5.739,3.305,10.638v6.629
		c0,4.781,0.301,7.796,0.89,9.03c0.607,1.235,1.727,1.861,3.348,1.861c0.073,0,0.188-0.011,0.376-0.037
		C278.773,45.652,278.903,45.642,279,45.642L279,45.642z M265.398,33.029c-3.95,0.115-6.973,0.81-9.062,2.078
		c-2.095,1.283-3.138,3.063-3.138,5.337c0,1.421,0.431,2.541,1.276,3.35c0.851,0.818,2.009,1.225,3.461,1.225
		c1.271,0,2.571-0.231,3.883-0.693c1.314-0.463,2.615-1.131,3.88-2.021c-0.103-0.854-0.183-2.02-0.215-3.5
		C265.443,37.326,265.422,35.398,265.398,33.029L265.398,33.029z"/>
	<path fill="#333330" d="M48.235,2.07h5.64v0.66h-2.431v7.425h-0.766V2.729h-2.443V2.07L48.235,2.07z M54.395,2.07h0.86l2.091,4.3
		l0.42,1.013h0.034l0.361-0.969l1.813-4.344h0.837l-2.883,6.801c-0.185,0.427-0.389,0.77-0.613,1.026s-0.542,0.385-0.957,0.385
		c-0.229,0-0.502-0.058-0.814-0.17l0.037-0.65c0.221,0.108,0.42,0.165,0.59,0.165c0.255,0,0.454-0.089,0.602-0.267
		c0.142-0.177,0.272-0.403,0.389-0.682l0.196-0.487L54.395,2.07L54.395,2.07z M62.322,2.07h2.114c0.463,0,0.877,0.091,1.246,0.271
		c0.372,0.179,0.664,0.447,0.874,0.801c0.216,0.353,0.32,0.771,0.32,1.259c0,0.489-0.104,0.91-0.314,1.263
		c-0.21,0.354-0.502,0.622-0.874,0.801c-0.369,0.18-0.786,0.271-1.251,0.271h-1.348v3.419h-0.766V2.07L62.322,2.07z M63.088,2.729
		v3.348h1.198c0.397,0,0.789-0.102,1.18-0.308c0.391-0.206,0.584-0.662,0.584-1.366c0-0.524-0.153-0.936-0.465-1.23
		c-0.312-0.296-0.744-0.444-1.299-0.444H63.088L63.088,2.729z M67.979,6.123c0-0.808,0.147-1.525,0.449-2.151
		c0.3-0.63,0.729-1.12,1.288-1.471c0.559-0.348,1.208-0.523,1.952-0.523c0.556,0,1.061,0.1,1.521,0.299
		c0.455,0.2,0.84,0.482,1.167,0.853c0.32,0.37,0.567,0.808,0.737,1.316c0.17,0.512,0.256,1.068,0.256,1.678
		c0,0.513-0.071,1.012-0.21,1.497s-0.357,0.926-0.656,1.324c-0.295,0.397-0.681,0.715-1.158,0.949
		c-0.471,0.236-1.026,0.355-1.657,0.355c-0.636,0-1.189-0.119-1.66-0.353c-0.474-0.235-0.86-0.551-1.155-0.949
		c-0.298-0.399-0.519-0.842-0.658-1.333C68.053,7.124,67.979,6.626,67.979,6.123L67.979,6.123z M68.805,6.123
		c0,0.809,0.145,1.473,0.432,1.993c0.286,0.521,0.649,0.896,1.083,1.127c0.434,0.23,0.883,0.346,1.348,0.346
		c0.329,0,0.664-0.063,1.001-0.189c0.335-0.126,0.645-0.325,0.922-0.599c0.278-0.271,0.505-0.633,0.675-1.08
		c0.17-0.448,0.256-0.979,0.256-1.598c0-0.81-0.142-1.475-0.432-1.998c-0.287-0.524-0.649-0.904-1.089-1.138
		c-0.437-0.234-0.882-0.351-1.333-0.351c-0.459,0-0.902,0.117-1.342,0.351c-0.434,0.232-0.8,0.612-1.089,1.135
		C68.95,4.648,68.805,5.313,68.805,6.123L68.805,6.123z M77.147,2.07h5.776v8.085h-0.769V2.729h-4.238v7.425h-0.769V2.07
		L77.147,2.07z M85.247,2.07h3.95v0.66h-3.184V5.65h3.033v0.658h-3.033v3.188h3.405v0.658h-4.171V2.07L85.247,2.07z M91.16,2.07
		h2.116c0.46,0,0.879,0.091,1.249,0.271c0.369,0.179,0.658,0.447,0.874,0.801c0.21,0.353,0.317,0.771,0.317,1.259
		c0,0.489-0.102,0.91-0.314,1.263c-0.213,0.354-0.502,0.622-0.871,0.801c-0.369,0.18-0.789,0.271-1.254,0.271h-1.348v3.419H91.16
		V2.07L91.16,2.07z M91.929,2.729v3.348h1.198c0.397,0,0.792-0.102,1.177-0.308c0.392-0.206,0.59-0.662,0.59-1.366
		c0-0.524-0.156-0.936-0.466-1.23c-0.312-0.296-0.743-0.444-1.302-0.444H91.929L91.929,2.729z M99.586,2.07h0.999l3.43,8.085h-0.826
		l-0.942-2.229h-4.159l-0.908,2.229h-0.823L99.586,2.07L99.586,2.07z M100.097,2.821h-0.034l-0.255,0.76l-1.475,3.687h3.637
		l-1.58-3.687L100.097,2.821L100.097,2.821z M104.359,2.07H110v0.66h-2.429v7.425h-0.766V2.729h-2.446V2.07L104.359,2.07z
		 M110.811,6.123c0-0.808,0.148-1.525,0.448-2.151c0.301-0.63,0.729-1.12,1.288-1.471c0.559-0.348,1.209-0.523,1.953-0.523
		c0.556,0,1.061,0.1,1.518,0.299c0.457,0.2,0.843,0.482,1.166,0.853c0.323,0.37,0.571,0.808,0.741,1.316
		c0.17,0.512,0.255,1.068,0.255,1.678c0,0.513-0.071,1.012-0.21,1.497c-0.139,0.485-0.357,0.926-0.656,1.324
		c-0.294,0.397-0.681,0.715-1.157,0.949c-0.471,0.236-1.027,0.355-1.657,0.355c-0.636,0-1.189-0.119-1.663-0.353
		c-0.471-0.235-0.856-0.551-1.155-0.949c-0.294-0.399-0.516-0.842-0.655-1.333C110.885,7.124,110.811,6.626,110.811,6.123
		L110.811,6.123z M111.637,6.123c0,0.809,0.145,1.473,0.431,1.993c0.286,0.521,0.646,0.896,1.081,1.127
		c0.437,0.23,0.885,0.346,1.351,0.346c0.329,0,0.664-0.063,1.001-0.189c0.334-0.126,0.644-0.325,0.922-0.599
		c0.278-0.271,0.505-0.633,0.675-1.08c0.17-0.448,0.255-0.979,0.255-1.598c0-0.81-0.142-1.475-0.431-1.998
		c-0.287-0.524-0.649-0.904-1.09-1.138c-0.437-0.234-0.882-0.351-1.333-0.351c-0.459,0-0.905,0.117-1.342,0.351
		c-0.437,0.232-0.8,0.612-1.089,1.135C111.781,4.648,111.637,5.313,111.637,6.123L111.637,6.123z M119.978,2.07h2.114
		c0.462,0,0.879,0.091,1.248,0.271c0.369,0.179,0.662,0.447,0.875,0.801c0.212,0.353,0.32,0.771,0.32,1.259
		c0,0.489-0.105,0.91-0.315,1.263c-0.213,0.354-0.505,0.622-0.874,0.801c-0.369,0.18-0.789,0.271-1.254,0.271h-1.345v3.419h-0.769
		V2.07L119.978,2.07z M120.747,2.729v3.348h1.197c0.397,0,0.789-0.102,1.177-0.308c0.392-0.206,0.587-0.662,0.587-1.366
		c0-0.524-0.153-0.936-0.465-1.23c-0.313-0.296-0.743-0.444-1.299-0.444H120.747L120.747,2.729z"/>
</g>
</svg>
